<svg width="64" height="64" viewBox="0 0 24 24" fill="none" xmlns="http://www.w3.org/2000/svg">
  <rect x="2" y="2" width="20" height="20" rx="6" fill="#EEF4FF" stroke="#D7E3FF" stroke-width="0.75" />
  <g transform="translate(3 3) scale(0.75)">
    <path
      d="M21.42 10.922a1 1 0 0 0-.019-1.838L12.83 5.18a2 2 0 0 0-1.66 0L2.6 9.08a1 1 0 0 0 0 1.832l8.57 3.908a2 2 0 0 0 1.66 0z"
      stroke="#355BCB"
      stroke-width="1.9"
      stroke-linecap="round"
      stroke-linejoin="round"
    />
    <path
      d="M22 10v6"
      stroke="#355BCB"
      stroke-width="1.9"
      stroke-linecap="round"
      stroke-linejoin="round"
    />
    <path
      d="M6 12.5V16a6 3 0 0 0 12 0v-3.5"
      stroke="#355BCB"
      stroke-width="1.9"
      stroke-linecap="round"
      stroke-linejoin="round"
    />
  </g>
</svg>
